[b][u]Far Cry (2008) DVDRip XviD{ExtraTorrent}-Dubby[/u][/b]
-------------------------------------------------------------------------------
[b]Movie Information[/b]
-------------------------------------------------------------------------------
Movie Title    : Far Cry
IMDB Link      : http://www.imdb.com/title/tt0400426/
Genre          : Action | Adventure | Drama
IMDB Ratings   : 3.2/10   4,225 votes 
Director       : Uwe Boll
Language       : English
Duriation      : 95 min

-------------------------------------------------------------------------------
[b]Main Cast[/b]
-------------------------------------------------------------------------------
Til Schweiger	  ... 	Jack Carver

Emmanuelle Vaugier... 	Valerie Cardinal

Natalia Avelon    ... 	Katja Chernov
	
Michael Paré	  ... 	Paul Summers

Craig Fairbrass	  ... 	Parker

Udo Kier	  ... 	Dr. Lucas Krieger

Mike Dopud	  ... 	Sgt. Ryder

Carrie Genzel	  ... 	Tourist Laura
	
Anthony Bourdain  ... 	Scientist

Ralf Moeller	  ... 	Max Cardinal

Michael Teigen	  ... 	Mercenary Bridge
	
D. Harlan Cutshall... 	Mercenary Quinn

Scott Cooper	  ... 	Young Reporter Brooks
-------------------------------------------------------------------------------
[b]Plot[/b]
-------------------------------------------------------------------------------
Two Seattle reporters investigate the deaths of mercenaries on an island off 
the coast of the Pacific Northwest

-------------------------------------------------------------------------------
[b]General Release Information[/b]
-------------------------------------------------------------------------------
Release Title                    : Far Cry (2008) DVDRip XviD{ExtraTorrent}-Dubby
Source                           : Far.Cry.2008.NTSC.DVDR-KART3LDVD
Format                           : AVI
Format/Info                      : Audio Video Interleave
File size                        : 716 MiB
Duration                         : 1h 34mn
Overall bit rate                 : 1 057 Kbps
Writing application              : VirtualDubMod 1.5.10.2 (build 2540/release)
Writing library                  : VirtualDubMod build 2540/release

-------------------------------------------------------------------------------
[b]Video Information[/b]
-------------------------------------------------------------------------------
ID                               : 0
Format                           : MPEG-4 Visual
Format profile                   : AdvancedSimple@L5
Format settings, BVOP            : Yes
Format settings, QPel            : No
Format settings, GMC             : No warppoints
Format settings, Matrix          : Default (H.263)
Muxing mode                      : Packed bitstream
Codec ID                         : XVID
Codec ID/Hint                    : XviD
Duration                         : 1h 34mn
Bit rate                         : 920 Kbps
Width                            : 640 pixels
Height                           : 256 pixels
Display aspect ratio             : 2.500
Frame rate                       : 23.976 fps
Resolution                       : 24 bits
Colorimetry                      : 4:2:0
Scan type                        : Progressive
Bits/(Pixel*Frame)               : 0.234
Stream size                      : 623 MiB (87%)
Writing library                  : XviD 1.2.1 (UTC 2008-12-04)

-------------------------------------------------------------------------------
[b]Audio Information[/b]
-------------------------------------------------------------------------------
ID                               : 1
Format                           : MPEG Audio
Format version                   : Version 1
Format profile                   : Layer 3
Codec ID                         : 55
Codec ID/Hint                    : MP3
Duration                         : 1h 34mn
Bit rate mode                    : Constant
Bit rate                         : 128 Kbps
Channel(s)                       : 2 channels
Sampling rate                    : 48.0 KHz
Resolution                       : 16 bits
Stream size                      : 86.7 MiB (12%)
Alignment                        : Aligned on interleaves
Interleave, duration             : 42 ms (1.00 video frame)
Interleave, preload duration     : 504 ms



-------------------------------------------------------------------------------
[b]Notes[/b]
-------------------------------------------------------------------------------
I am looking For PAL and NTSC DVDRs, Pre released R5s, dvd/screeners, direct/
line audio, and syncers. If you can offer me anything, pm me and we'll chat
on msn! i do not take requests very often....
this is burn tested using convert x to dvd enjoy.

-------------------------------------------------------------------------------
[b]Screenshots[/b]
-------------------------------------------------------------------------------
[img]http://lookpic.com/i/831/RYRyhGtd.png[/img]
[img]http://lookpic.com/i/613/LUadizI5.png[/img]
[img]http://lookpic.com/i/539/KnuFxiAf.png[/img]
[img]http://lookpic.com/i/763/WxOy8xyb.png[/img]
[img]http://lookpic.com/i/512/XJBEjum.png[/img]


Quick Shouts: Wrath, BADASS, SaM, xxxObscenexxx and every other loyal member
of et thanks to you for seeding and sharing! Blazinseedboxes.com is a good place
to get a seedbox if you are interested!